<?xml version="1.0" encoding="utf-8"?>
<!-- Generator: Adobe Illustrator 18.0.0, SVG Export Plug-In . SVG Version: 6.00 Build 0)  -->
<!DOCTYPE svg PUBLIC "-//W3C//DTD SVG 1.1//EN" "http://www.w3.org/Graphics/SVG/1.1/DTD/svg11.dtd">
<svg version="1.1" id="Layer_1" xmlns="http://www.w3.org/2000/svg" xmlns:xlink="http://www.w3.org/1999/xlink" x="0px" y="0px"
	 viewBox="0 0 62 124" enable-background="new 0 0 62 124" xml:space="preserve">
<circle opacity="0.9" fill="#08374E" cx="31" cy="31" r="30"/>
<g>
	<path fill="#FFFFFF" d="M13.8,28.9v-8.7h4.1c1.9,0,2.9,1.3,2.9,2.8c0,1.5-1,2.8-2.9,2.8h-2.2v3.1H13.8z M18.9,23
		c0-0.7-0.6-1.2-1.3-1.2h-2v2.3h2C18.4,24.2,18.9,23.8,18.9,23z"/>
	<path fill="#FFFFFF" d="M23.2,28.9v-8.7H25v7h3.7v1.6H23.2z"/>
	<path fill="#FFFFFF" d="M37.3,28.9l-0.5-1.5H33l-0.5,1.5h-2.1l3.3-8.7H36l3.3,8.7H37.3z M34.8,22.1l-1.4,3.7h2.7L34.8,22.1z"/>
	<path fill="#FFFFFF" d="M43,28.9v-3.5l-3.3-5.1h2.1l2.1,3.5l2.1-3.5h2.1l-3.3,5.1v3.5H43z"/>
</g>
<polygon fill="#FFFFFF" points="28,34.8 34,40.7 28,46.7 "/>
<circle fill="#EF6735" cx="31" cy="93" r="30"/>
<g>
	<path fill="#FFFFFF" d="M13.8,90.9v-8.7h4.1c1.9,0,2.9,1.3,2.9,2.8c0,1.5-1,2.8-2.9,2.8h-2.2v3.1H13.8z M18.9,85
		c0-0.7-0.6-1.2-1.3-1.2h-2v2.3h2C18.4,86.2,18.9,85.8,18.9,85z"/>
	<path fill="#FFFFFF" d="M23.2,90.9v-8.7H25v7h3.7v1.6H23.2z"/>
	<path fill="#FFFFFF" d="M37.3,90.9l-0.5-1.5H33l-0.5,1.5h-2.1l3.3-8.7H36l3.3,8.7H37.3z M34.8,84.1l-1.4,3.7h2.7L34.8,84.1z"/>
	<path fill="#FFFFFF" d="M43,90.9v-3.5l-3.3-5.1h2.1l2.1,3.5l2.1-3.5h2.1l-3.3,5.1v3.5H43z"/>
</g>
<polygon fill="#FFFFFF" points="28,96.8 34,102.7 28,108.7 "/>
</svg>
