<?xml version="1.0" encoding="utf-8"?>
<!-- Generator: Adobe Illustrator 18.0.0, SVG Export Plug-In . SVG Version: 6.00 Build 0)  -->
<!DOCTYPE svg PUBLIC "-//W3C//DTD SVG 1.1//EN" "http://www.w3.org/Graphics/SVG/1.1/DTD/svg11.dtd">
<svg version="1.1" id="Layer_1" xmlns="http://www.w3.org/2000/svg" xmlns:xlink="http://www.w3.org/1999/xlink" x="0px" y="0px"
	 viewBox="0 0 62 62" enable-background="new 0 0 62 62" xml:space="preserve">
<circle fill="#08374E" cx="31" cy="31" r="30"/>
<g>
	<path fill="#FFFFFF" d="M10.1,33.9l1-1.4c0.6,0.6,1.6,1.2,2.8,1.2c1,0,1.5-0.5,1.5-1c0-1.5-5-0.5-5-3.7c0-1.4,1.2-2.6,3.3-2.6
		c1.4,0,2.5,0.4,3.4,1.2l-1,1.4c-0.7-0.6-1.6-0.9-2.5-0.9c-0.8,0-1.2,0.3-1.2,0.9c0,1.4,5,0.4,5,3.7c0,1.6-1.1,2.8-3.5,2.8
		C12.1,35.3,10.9,34.8,10.1,33.9z"/>
	<path fill="#FFFFFF" d="M21.6,35.2v-7h-2.5v-1.6H26v1.6h-2.5v7H21.6z"/>
	<path fill="#FFFFFF" d="M30.9,35.2v-3.5l-3.3-5.1h2.1l2.1,3.5l2.1-3.5H36l-3.3,5.1v3.5H30.9z"/>
	<path fill="#FFFFFF" d="M38.1,35.2v-8.7h1.9v7h3.7v1.6H38.1z"/>
	<path fill="#FFFFFF" d="M46.1,35.2v-8.7h6.1v1.6H48v1.8h4.2v1.6H48v2h4.3v1.6H46.1z"/>
</g>
</svg>
