<?xml version="1.0" encoding="utf-8"?>
<!-- Generator: Adobe Illustrator 18.0.0, SVG Export Plug-In . SVG Version: 6.00 Build 0)  -->
<!DOCTYPE svg PUBLIC "-//W3C//DTD SVG 1.1//EN" "http://www.w3.org/Graphics/SVG/1.1/DTD/svg11.dtd">
<svg version="1.1" id="Layer_1" xmlns="http://www.w3.org/2000/svg" xmlns:xlink="http://www.w3.org/1999/xlink" x="0px" y="0px"
	 viewBox="0 0 62 62" enable-background="new 0 0 62 62" xml:space="preserve">
<circle opacity="0.9" fill="#08374E" cx="31" cy="31" r="30"/>
<g>
	<path fill="#FFFFFF" d="M21.6,28.2v-8.7h6.1v1.6h-4.3V23h4.2v1.6h-4.2v3.6H21.6z"/>
	<path fill="#FFFFFF" d="M36.9,28.2l-1.5-6l-1.5,6h-2l-2.5-8.7h2.1l1.5,6.3l1.7-6.3h1.4l1.6,6.3l1.5-6.3h2.1l-2.5,8.7H36.9z"/>
	<path fill="#FFFFFF" d="M15.2,41.3v-1.5c3.5-2.6,4.6-3.5,4.6-4.6c0-0.8-0.7-1.1-1.4-1.1c-1,0-1.7,0.4-2.3,1L15,33.9
		c0.8-1,2.1-1.4,3.3-1.4c1.9,0,3.3,1,3.3,2.8c0,1.5-1.2,2.8-3.5,4.4h3.5v1.6H15.2z"/>
	<path fill="#FFFFFF" d="M24.1,37c0-2.2,1.1-4.5,3.6-4.5c2.5,0,3.6,2.2,3.6,4.5c0,2.2-1.1,4.5-3.6,4.5C25.2,41.5,24.1,39.2,24.1,37z
		 M29.4,37c0-1.6-0.5-2.8-1.7-2.8c-1.2,0-1.7,1.2-1.7,2.8s0.5,2.8,1.7,2.8C28.9,39.9,29.4,38.6,29.4,37z"/>
	<path fill="#FFFFFF" d="M35.6,41.3V35l-1.4,1.5l-1.1-1.1l2.7-2.7h1.6v8.7H35.6z"/>
	<path fill="#FFFFFF" d="M40.3,40.2l1-1.3c0.6,0.6,1.4,0.9,2.3,0.9c1,0,1.6-0.6,1.6-1.3c0-0.8-0.6-1.3-1.6-1.3
		c-0.7,0-1.3,0.2-1.8,0.7l-1.3-0.4v-5h6v1.6h-4.1v2.1c0.4-0.4,1.1-0.7,1.9-0.7c1.5,0,2.8,1.1,2.8,2.8c0,1.8-1.4,3-3.5,3
		C42.1,41.5,41,41,40.3,40.2z"/>
</g>
</svg>
